<svg width="9" height="18" viewBox="0 0 9 18" fill="none" xmlns="http://www.w3.org/2000/svg">
<path d="M0.375156 2.04C0.279156 2.04 0.231156 2 0.231156 1.92C0.231156 1.856 0.279156 1.824 0.375156 1.824L2.04316 1.788C2.99516 1.788 3.72716 1.72 4.23916 1.584C4.75916 1.448 5.16716 1.168 5.46316 0.743999C5.52716 0.631999 5.58716 0.576 5.64316 0.576C5.73116 0.576 5.77516 0.636 5.77516 0.756V16.8C5.77516 17.232 5.97516 17.488 6.37516 17.568L7.87516 17.808C7.97116 17.832 8.01916 17.864 8.01916 17.904C8.01916 17.968 7.97116 18 7.87516 18H0.255156C0.151156 18 0.0991563 17.964 0.0991563 17.892C0.0991563 17.852 0.155156 17.82 0.267156 17.796L1.73116 17.568C1.93116 17.52 2.09516 17.44 2.22316 17.328C2.35116 17.216 2.41516 17.044 2.41516 16.812V2.508C2.41516 2.212 2.29516 2.064 2.05516 2.064L0.375156 2.04Z" fill="#24053E"/>
</svg>
