<svg width="13" height="19" viewBox="0 0 13 19" fill="none" xmlns="http://www.w3.org/2000/svg">
<path d="M0.516031 16.704C0.516031 15.568 1.00003 14.736 1.96803 14.208L4.24803 12.732C5.68803 11.78 6.76003 10.72 7.46403 9.552C8.17603 8.376 8.53203 6.992 8.53203 5.4C8.53203 3.856 8.29203 2.76 7.81203 2.112C7.34003 1.456 6.78803 1.128 6.15603 1.128C5.39603 1.128 4.82003 1.356 4.42803 1.812C4.04403 2.26 3.85203 2.876 3.85203 3.66V5.22C3.85203 5.78 3.70003 6.22 3.39603 6.54C3.10003 6.852 2.74003 7.008 2.31603 7.008C1.85203 7.008 1.48803 6.876 1.22403 6.612C0.960031 6.34 0.828031 5.956 0.828031 5.46C0.828031 4.7 1.05203 3.976 1.50003 3.288C1.95603 2.6 2.62803 2.04 3.51603 1.608C4.40403 1.176 5.50403 0.959999 6.81603 0.959999C8.46403 0.959999 9.73603 1.36 10.632 2.16C11.536 2.96 11.988 3.98 11.988 5.22C11.988 6.06 11.78 6.852 11.364 7.596C10.956 8.34 10.296 9.088 9.38403 9.84C8.47203 10.592 7.26403 11.408 5.76003 12.288L2.90403 13.848C3.35203 13.736 3.84803 13.68 4.39203 13.68C5.04003 13.68 5.70403 13.804 6.38403 14.052C7.06403 14.292 7.73203 14.532 8.38803 14.772C9.04403 15.012 9.65603 15.132 10.224 15.132C10.832 15.132 11.3 15.004 11.628 14.748C11.964 14.484 12.236 14.028 12.444 13.38C12.46 13.308 12.488 13.28 12.528 13.296C12.56 13.304 12.576 13.336 12.576 13.392C12.44 14.632 12.212 15.604 11.892 16.308C11.572 17.004 11.168 17.496 10.68 17.784C10.192 18.064 9.63603 18.204 9.01203 18.204C8.46803 18.204 7.98803 18.108 7.57203 17.916C7.15603 17.724 6.75603 17.384 6.37203 16.896C5.99603 16.408 5.58803 15.724 5.14803 14.844C4.86003 14.468 4.62803 14.208 4.45203 14.064C4.28403 13.92 4.13203 13.848 3.99603 13.848C3.78803 13.848 3.62403 13.968 3.50403 14.208C3.38403 14.448 3.31203 14.896 3.28803 15.552C3.23203 16.6 3.05603 17.3 2.76003 17.652C2.46403 18.004 2.08803 18.18 1.63203 18.18C1.28803 18.18 1.01603 18.044 0.816031 17.772C0.616031 17.5 0.516031 17.144 0.516031 16.704Z" fill="#24053E"/>
</svg>
