<svg width="13" height="18" viewBox="0 0 13 18" fill="none" xmlns="http://www.w3.org/2000/svg">
<path d="M12.0602 12.26C12.0602 13.276 11.8122 14.156 11.3162 14.9C10.8282 15.644 10.1442 16.22 9.26422 16.628C8.38422 17.036 7.36422 17.24 6.20422 17.24C4.50822 17.24 3.19622 16.892 2.26822 16.196C1.34822 15.5 0.888219 14.64 0.888219 13.616C0.888219 13.032 1.04022 12.56 1.34422 12.2C1.64822 11.832 2.01622 11.648 2.44822 11.648C2.81622 11.648 3.13222 11.792 3.39622 12.08C3.66022 12.36 3.79222 12.724 3.79222 13.172V14.648C3.79222 15.352 4.00422 15.936 4.42822 16.4C4.85222 16.856 5.46422 17.084 6.26422 17.084C7.08822 17.084 7.74422 16.756 8.23222 16.1C8.72022 15.444 8.96422 14.356 8.96422 12.836C8.96422 11.284 8.66422 10.124 8.06422 9.356C7.46422 8.588 6.68422 8.204 5.72422 8.204H5.02822C4.91622 8.204 4.86022 8.164 4.86022 8.084C4.86022 8.044 4.91622 7.968 5.02822 7.856L9.72022 2.804H2.84422C2.58022 2.804 2.40822 2.94 2.32822 3.212L1.81222 5.012C1.79622 5.084 1.75622 5.12 1.69222 5.12C1.62022 5.12 1.59222 5.072 1.60822 4.976L2.14822 0.571999C2.18022 0.323999 2.28822 0.199999 2.47222 0.199999H12.2762C12.3882 0.199999 12.4442 0.247999 12.4442 0.344C12.4442 0.415999 12.3922 0.507999 12.2882 0.62L5.20822 7.94H5.79622C7.71622 7.94 9.24022 8.288 10.3682 8.984C11.4962 9.68 12.0602 10.772 12.0602 12.26Z" fill="#24053E"/>
</svg>
